<svg width="24" height="24" viewBox="0 0 24 24" fill="none" xmlns="http://www.w3.org/2000/svg">
  <path d="M12 24c6.627 0 12-5.373 12-12S18.627 0 12 0 0 5.373 0 12s5.373 12 12 12z" fill="#F7931A"/>
  <path d="M16.5 10.5c.2-1.4-.9-2.2-2.4-2.7l.5-2-1.2-.3-.5 1.9c-.3-.1-.6-.2-1-.2l.5-1.9-1.2-.3-.5 2c-.2-.1-.5-.1-.7-.2l-1.6-.4-.3 1.3s.9.2.9.2c.5.1.6.4.5.7l-.5 2.1c0 0 .1 0 .1 0-.1 0-.1 0-.2 0l-.7 2.9c-.1.2-.2.4-.5.3 0 0-.9-.2-.9-.2L7 16l1.5.4c.3.1.6.1.8.2l-.5 2 1.2.3.5-2c.3.1.6.2.9.2l-.5 2 1.2.3.5-2c2.2.4 3.8.2 4.5-1.7.5-1.5 0-2.4-1.1-3 .8-.1 1.4-.6 1.5-1.6z" fill="white"/>
</svg> 